<svg xmlns="http://www.w3.org/2000/svg" width="160" height="190" viewBox="0 0 160 190" fill="none">
<defs>
<linearGradient id="p" x1="0" y1="0" x2="1" y2="1"><stop offset="0%" stop-color="#6f4b1f"/><stop offset="100%" stop-color="#402510"/></linearGradient>
<radialGradient id="g" cx="50%" cy="25%" r="70%"><stop offset="0%" stop-color="#f2cc65" stop-opacity="0.22"/><stop offset="100%" stop-color="#f2cc65" stop-opacity="0"/></radialGradient>
<filter id="shadow" x="-20%" y="-20%" width="140%" height="140%"><feDropShadow dx="0" dy="10" stdDeviation="10" flood-color="#000" flood-opacity="0.35"/></filter>
</defs>
<ellipse cx="80" cy="96" rx="58" ry="72" fill="url(#g)"/>
<g filter="url(#shadow)">
<path d="M80 16 C101 24 118 36 115 55 C113 71 129 84 133 113 C136 149 113 173 80 173 C47 173 24 149 27 113 C31 84 47 71 45 55 C42 36 59 24 80 16 Z" fill="url(#p)" stroke="#f2cc65" stroke-opacity="0.45"/>
<path d="M50 47 C69 57 91 57 110 47" stroke="#f2cc65" stroke-width="4" stroke-linecap="round"/>
<path d="M57 40 C73 50 87 50 103 40" stroke="#d9b85f" stroke-width="3" stroke-linecap="round"/>
<circle cx="80" cy="100" r="26" fill="#241632" fill-opacity="0.34" stroke="#f2cc65" stroke-opacity="0.35"/>
<text x="80" y="110" text-anchor="middle" fill="#f2cc65" font-size="28" font-family="Georgia">ᚠ</text>
</g>
</svg>